<?xml version="1.0" encoding="UTF-8" standalone="no"?>
<!-- Created with Inkscape (http://www.inkscape.org/) -->

<svg
   width="200"
   height="200"
   viewBox="0 0 52.916665 52.916668"
   version="1.1"
   id="svg4078"
   inkscape:version="1.1 (c68e22c387, 2021-05-23)"
   sodipodi:docname="email-us.svg"
   xmlns:inkscape="http://www.inkscape.org/namespaces/inkscape"
   xmlns:sodipodi="http://sodipodi.sourceforge.net/DTD/sodipodi-0.dtd"
   xmlns="http://www.w3.org/2000/svg"
   xmlns:svg="http://www.w3.org/2000/svg">
  <sodipodi:namedview
     id="namedview4080"
     pagecolor="#505050"
     bordercolor="#eeeeee"
     borderopacity="1"
     inkscape:pageshadow="0"
     inkscape:pageopacity="0"
     inkscape:pagecheckerboard="0"
     inkscape:document-units="mm"
     showgrid="false"
     units="px"
     showguides="false"
     inkscape:zoom="2.9647587"
     inkscape:cx="105.40487"
     inkscape:cy="89.214681"
     inkscape:window-width="1920"
     inkscape:window-height="1017"
     inkscape:window-x="1208"
     inkscape:window-y="-8"
     inkscape:window-maximized="1"
     inkscape:current-layer="layer1" />
  <defs
     id="defs4075">
    <style
       id="style4139">.cls-1{fill-rule:evenodd;}</style>
  </defs>
  <g
     inkscape:label="Layer 1"
     inkscape:groupmode="layer"
     id="layer1">
    <rect
       style="fill:#87de87;stroke-width:1;stroke-linecap:round"
       id="rect4210"
       width="52.916668"
       height="52.916668"
       x="-6.357829e-07"
       y="-6.357829e-07" />
    <path
       class="cls-1"
       d="M 26.458333,2.6458333 A 23.8125,23.8125 0 1 1 2.6458333,26.458333 23.8125,23.8125 0 0 1 26.458333,2.6458333 Z M 14.555959,17.373617 26.675375,27.245106 38.267689,17.373617 Z m -0.775147,16.623016 8.631256,-8.658387 -8.639006,-7.03833 v 15.688965 z m 9.573059,-7.88324 -8.894806,8.914184 h 23.924896 l -8.503356,-8.914184 -2.817658,2.387451 v 0 a 0.60848999,0.60848999 0 0 1 -0.775147,0 l -2.94168,-2.399079 z m 7.45691,-0.775147 8.332823,8.7359 V 18.222401 l -8.332823,7.100343 z"
       id="path4145"
       style="fill:#ffffff;stroke-width:0.387573" />
  </g>
</svg>
