<?xml version="1.0" encoding="UTF-8" standalone="no"?>
<!-- Created with Inkscape (http://www.inkscape.org/) -->

<svg
   width="200"
   height="200"
   viewBox="0 0 52.916665 52.916668"
   version="1.1"
   id="svg1445"
   inkscape:version="1.1 (c68e22c387, 2021-05-23)"
   sodipodi:docname="Insta-Logo-2.svg"
   xmlns:inkscape="http://www.inkscape.org/namespaces/inkscape"
   xmlns:sodipodi="http://sodipodi.sourceforge.net/DTD/sodipodi-0.dtd"
   xmlns="http://www.w3.org/2000/svg"
   xmlns:svg="http://www.w3.org/2000/svg">
  <sodipodi:namedview
     id="namedview1447"
     pagecolor="#505050"
     bordercolor="#eeeeee"
     borderopacity="1"
     inkscape:pageshadow="0"
     inkscape:pageopacity="0"
     inkscape:pagecheckerboard="0"
     inkscape:document-units="px"
     showgrid="false"
     units="px"
     width="200px"
     inkscape:zoom="3.1108586"
     inkscape:cx="95.954217"
     inkscape:cy="100.77604"
     inkscape:window-width="2560"
     inkscape:window-height="1377"
     inkscape:window-x="1912"
     inkscape:window-y="-8"
     inkscape:window-maximized="1"
     inkscape:current-layer="layer1" />
  <defs
     id="defs1442">
    <clipPath
       clipPathUnits="userSpaceOnUse"
       id="clipPath1201">
      <rect
         style="fill:#000000;stroke:none;stroke-width:2.51294;stroke-linecap:round"
         id="rect1203"
         width="206.77295"
         height="120.37807"
         x="-30.532415"
         y="3.7258086" />
    </clipPath>
  </defs>
  <g
     inkscape:label="Layer 1"
     inkscape:groupmode="layer"
     id="layer1">
    <rect
       style="fill:#ff8080;stroke-width:0.788726;stroke-linecap:round"
       id="rect1562"
       width="52.916668"
       height="52.916668"
       x="0"
       y="0" />
    <g
       id="g857"
       transform="matrix(0.40952095,0,0,0.38668807,-0.80856094,0.38240156)"
       clip-path="url(#clipPath1201)">
      <path
         fill="url(#SVGID_1_)"
         d="m 66.034,1 c -27.142,0 -35.08,0.028 -36.623,0.156 -5.57,0.463 -9.036,1.34 -12.812,3.22 -2.91,1.445 -5.205,3.12 -7.47,5.468 -4.125,4.282 -6.625,9.55 -7.53,15.812 -0.44,3.04 -0.568,3.66 -0.594,19.188 -0.01,5.176 0,11.988 0,21.125 0,27.12 0.03,35.05 0.16,36.589 0.45,5.42 1.3,8.83 3.1,12.561 3.44,7.141 10.01,12.5 17.75,14.5 2.68,0.689 5.64,1.07 9.44,1.25 1.61,0.07 18.02,0.119 34.44,0.119 16.419,0 32.839,-0.02 34.41,-0.1 4.4,-0.207 6.955,-0.55 9.78,-1.279 7.79,-2.01 14.24,-7.291 17.75,-14.53 1.765,-3.64 2.66,-7.181 3.065,-12.317 0.088,-1.119 0.125,-18.977 0.125,-36.81 0,-17.836 -0.041,-35.66 -0.129,-36.78 -0.41,-5.22 -1.305,-8.73 -3.127,-12.44 -1.494,-3.037 -3.154,-5.305 -5.564,-7.624 C 117.904,5 112.645,2.5 106.376,1.596 103.339,1.157 102.734,1.027 87.193,1 Z"
         id="path833" />
      <path
         fill="url(#SVGID_2_)"
         d="m 66.034,1 c -27.142,0 -35.08,0.028 -36.623,0.156 -5.57,0.463 -9.036,1.34 -12.812,3.22 -2.91,1.445 -5.205,3.12 -7.47,5.468 -4.125,4.282 -6.625,9.55 -7.53,15.812 -0.44,3.04 -0.568,3.66 -0.594,19.188 -0.01,5.176 0,11.988 0,21.125 0,27.12 0.03,35.05 0.16,36.589 0.45,5.42 1.3,8.83 3.1,12.561 3.44,7.141 10.01,12.5 17.75,14.5 2.68,0.689 5.64,1.07 9.44,1.25 1.61,0.07 18.02,0.119 34.44,0.119 16.419,0 32.839,-0.02 34.41,-0.1 4.4,-0.207 6.955,-0.55 9.78,-1.279 7.79,-2.01 14.24,-7.291 17.75,-14.53 1.765,-3.64 2.66,-7.181 3.065,-12.317 0.088,-1.119 0.125,-18.977 0.125,-36.81 0,-17.836 -0.041,-35.66 -0.129,-36.78 -0.41,-5.22 -1.305,-8.73 -3.127,-12.44 -1.494,-3.037 -3.154,-5.305 -5.564,-7.624 C 117.904,5 112.645,2.5 106.376,1.596 103.339,1.157 102.734,1.027 87.193,1 Z"
         id="path842" />
      <path
         fill="#ffffff"
         d="m 66.389611,12.087747 c -14.960087,0 -16.837557,0.06541 -22.713259,0.332804 -5.864225,0.268538 -9.867047,1.196945 -13.369516,2.559144 -3.622966,1.406954 -6.696234,3.289014 -9.758025,6.351954 -3.064087,3.061791 -4.946147,6.135059 -6.357693,9.756877 -1.365641,3.503617 -2.295196,7.507586 -2.559143,13.369517 -0.2628,5.875701 -0.331656,7.754319 -0.331656,22.714406 0,14.960087 0.06656,16.831819 0.332804,22.70752 0.269685,5.863079 1.198092,9.867044 2.559142,13.369511 1.408104,3.62182 3.290164,6.69509 6.353103,9.75688 3.060644,3.06408 6.133912,4.95074 9.754583,6.35884 3.504763,1.3622 7.508733,2.29061 13.371811,2.558 5.875702,0.26738 7.752024,0.3328 22.710963,0.3328 14.961235,0 16.832967,-0.0654 22.708669,-0.3328 5.864225,-0.26739 9.872782,-1.19695 13.375246,-2.558 3.62182,-1.4081 6.6905,-3.29476 9.75229,-6.35884 3.06408,-3.06179 4.94615,-6.13506 6.35655,-9.75688 1.35531,-3.503607 2.28371,-7.506432 2.55914,-13.368363 0.26395,-5.875701 0.3328,-7.748581 0.3328,-22.708668 0,-14.960087 -0.0688,-16.837557 -0.3328,-22.713259 -0.27543,-5.864225 -1.20498,-9.867047 -2.55914,-13.369516 -1.4104,-3.622966 -3.29247,-6.696234 -6.35655,-9.758025 -3.06408,-3.064087 -6.12817,-4.946147 -9.75458,-6.351954 C 98.951556,13.617496 94.946439,12.689089 89.08336,12.420551 83.207659,12.15316 81.337074,12.087747 66.371249,12.087747 Z m -4.941556,9.926722 c 1.46663,-0.0023 3.103104,0 4.941556,0 14.707615,0 16.450817,0.05279 22.25881,0.316738 5.370758,0.245585 8.285658,1.143007 10.227395,1.896979 2.569464,0.99841 4.402174,2.191912 6.330144,4.119876 1.92796,1.927965 3.12147,3.764122 4.12217,6.334741 0.75397,1.93944 1.6514,4.854339 1.89698,10.225098 0.2628,5.806846 0.32132,7.551194 0.32132,22.251924 0,14.70073 -0.0586,16.445079 -0.32132,22.251925 -0.24558,5.370759 -1.14301,8.286804 -1.89698,10.225093 -0.99841,2.570617 -2.19421,4.401037 -4.12217,6.327857 -1.92797,1.92796 -3.75838,3.12262 -6.330144,4.11987 -1.939442,0.75742 -4.856637,1.65254 -10.227395,1.89813 -5.807993,0.26395 -7.551195,0.32133 -22.25881,0.32133 -14.708763,0 -16.451964,-0.0574 -22.25881,-0.32133 -5.370759,-0.24788 -8.285657,-1.14531 -10.228541,-1.89813 -2.570619,-0.99955 -4.406776,-2.19191 -6.33474,-4.11987 -1.927965,-1.92911 -3.121467,-3.76068 -4.122172,-6.332447 -0.753972,-1.938289 -1.652541,-4.854335 -1.896979,-10.225094 -0.263948,-5.807993 -0.316738,-7.551194 -0.316738,-22.261105 0,-14.70991 0.05279,-16.445078 0.316738,-22.251924 0.245585,-5.370759 1.143007,-8.285658 1.896979,-10.227393 0.99841,-2.57062 2.194207,-4.406776 4.122172,-6.334741 1.927964,-1.927964 3.764121,-3.121466 6.33474,-4.122172 1.941737,-0.757414 4.857782,-1.652541 10.228541,-1.899275 5.081564,-0.229519 7.050842,-0.298375 17.317254,-0.309851 z m 34.345311,9.146356 c -3.65051,0 -6.610165,2.95736 -6.610165,6.607869 0,3.649362 2.959655,6.610164 6.610165,6.610164 3.65051,0 6.611304,-2.960802 6.611304,-6.610164 0,-3.649361 -2.960794,-6.610164 -6.611304,-6.610164 z m -29.403755,7.723334 c -15.622251,0 -28.28829,12.666039 -28.28829,28.28829 0,15.622251 12.666039,28.282552 28.28829,28.282552 15.622251,0 28.283699,-12.660301 28.283699,-28.282552 0,-15.622251 -12.662596,-28.28829 -28.283699,-28.28829 z m 0,9.926722 c 10.140175,0 18.361567,8.220245 18.361567,18.361568 0,10.140175 -8.221392,18.361567 -18.361567,18.361567 -10.141323,0 -18.361568,-8.221392 -18.361568,-18.361567 0,-10.141323 8.220245,-18.361568 18.361568,-18.361568 z"
         id="path844"
         style="stroke-width:1.1476" />
      <path
         fill="#262626"
         d="m -2.301,139.176 c -3.261,1.365 -6.846,5.222 -7.979,10.063 -1.434,6.134 4.533,8.727 5.022,7.877 0.576,-0.999 -1.069,-1.337 -1.408,-4.52 -0.438,-4.11 1.473,-8.703 3.878,-10.718 0.447,-0.375 0.426,0.146 0.426,1.11 0,1.724 -0.095,17.196 -0.095,20.426 0,4.369 -0.181,5.749 -0.505,7.112 -0.328,1.382 -0.856,2.315 -0.456,2.676 0.447,0.402 2.355,-0.556 3.46,-2.097 1.325,-1.85 1.789,-4.071 1.872,-6.482 0.101,-2.908 0.096,-7.521 0.101,-10.153 0.004,-2.414 0.041,-9.481 -0.042,-13.73 -0.02,-1.044 -2.91,-2.136 -4.274,-1.564 m 115.804,20.449 c -0.105,2.272 -0.607,4.048 -1.232,5.3 -1.208,2.425 -3.715,3.178 -4.78,-0.308 -0.58,-1.899 -0.606,-5.073 -0.189,-7.725 0.425,-2.7 1.609,-4.74 3.573,-4.557 1.935,0.183 2.841,2.678 2.628,7.29 z m -32.639,14.094 c -0.026,3.774 -0.62,7.084 -1.894,8.045 -1.807,1.363 -4.236,0.341 -3.732,-2.413 0.444,-2.438 2.549,-4.927 5.631,-7.968 0,0 0.006,0.694 -0.005,2.336 z m -0.493,-14.115 c -0.11,2.068 -0.646,4.147 -1.232,5.321 -1.207,2.425 -3.733,3.184 -4.779,-0.308 -0.716,-2.385 -0.544,-5.472 -0.19,-7.416 0.46,-2.523 1.573,-4.864 3.573,-4.864 1.943,0 2.902,2.133 2.628,7.267 z m -18.908,-0.033 c -0.118,2.191 -0.545,4.023 -1.231,5.354 -1.241,2.408 -3.697,3.172 -4.779,-0.308 -0.781,-2.509 -0.515,-5.93 -0.19,-7.778 0.482,-2.742 1.689,-4.687 3.573,-4.502 1.934,0.188 2.874,2.676 2.627,7.234 z m 86.649,2.56 c -0.474,0 -0.689,0.487 -0.868,1.309 -0.62,2.854 -1.271,3.499 -2.11,3.499 -0.938,0 -1.781,-1.414 -1.998,-4.242 -0.17,-2.225 -0.143,-6.32 0.075,-10.394 0.044,-0.837 -0.187,-1.665 -2.432,-2.481 -0.966,-0.351 -2.37,-0.866 -3.069,0.821 -1.976,4.768 -2.748,8.553 -2.93,10.091 -0.01,0.08 -0.107,0.096 -0.124,-0.09 -0.116,-1.232 -0.375,-3.47 -0.407,-8.172 -0.007,-0.918 -0.201,-1.699 -1.213,-2.338 -0.658,-0.416 -2.653,-1.148 -3.371,-0.275 -0.623,0.713 -1.344,2.634 -2.093,4.912 -0.608,1.851 -1.033,3.104 -1.033,3.104 0,0 0.009,-4.995 0.016,-6.89 0.003,-0.715 -0.487,-0.952 -0.635,-0.996 -0.665,-0.192 -1.977,-0.516 -2.533,-0.516 -0.687,0 -0.854,0.384 -0.854,0.943 0,0.073 -0.109,6.575 -0.109,11.122 0,0.197 0,0.413 0.002,0.643 -0.38,2.089 -1.611,4.927 -2.95,4.927 -1.341,0 -1.974,-1.188 -1.974,-6.607 0,-3.162 0.095,-4.537 0.142,-6.824 0.027,-1.317 0.08,-2.329 0.076,-2.559 -0.01,-0.704 -1.228,-1.059 -1.793,-1.189 -0.57,-0.133 -1.064,-0.184 -1.45,-0.162 -0.547,0.031 -0.933,0.39 -0.933,0.883 0,0.265 0.002,0.768 0.002,0.768 -0.704,-1.106 -1.836,-1.876 -2.589,-2.1 -2.029,-0.603 -4.146,-0.068 -5.744,2.166 -1.27,1.776 -2.034,3.787 -2.335,6.677 -0.221,2.112 -0.148,4.254 0.242,6.065 -0.472,2.045 -1.35,2.883 -2.312,2.883 -1.395,0 -2.406,-2.278 -2.289,-6.218 0.078,-2.59 0.596,-4.408 1.162,-7.039 0.242,-1.121 0.045,-1.708 -0.447,-2.271 -0.451,-0.517 -1.414,-0.78 -2.797,-0.456 -0.985,0.231 -2.395,0.48 -3.683,0.671 0,0 0.077,-0.31 0.142,-0.857 0.334,-2.869 -2.783,-2.636 -3.777,-1.72 -0.594,0.547 -0.998,1.192 -1.152,2.353 -0.242,1.841 1.26,2.709 1.26,2.709 -0.492,2.256 -1.701,5.202 -2.947,7.332 -0.668,1.141 -1.179,1.986 -1.839,2.885 -0.002,-0.334 -0.004,-0.669 -0.005,-1.002 -0.016,-4.741 0.048,-8.473 0.076,-9.817 0.026,-1.317 0.079,-2.303 0.077,-2.532 -0.008,-0.515 -0.309,-0.709 -0.934,-0.956 -0.554,-0.217 -1.208,-0.367 -1.886,-0.42 -0.855,-0.067 -1.372,0.387 -1.358,0.924 0.003,0.102 0.003,0.724 0.003,0.724 -0.704,-1.106 -1.836,-1.876 -2.59,-2.1 -2.029,-0.602 -4.146,-0.067 -5.743,2.166 -1.27,1.776 -2.101,4.268 -2.335,6.654 -0.221,2.226 -0.18,4.115 0.119,5.708 -0.322,1.594 -1.25,3.263 -2.299,3.263 -1.341,0 -2.104,-1.187 -2.104,-6.606 0,-3.162 0.095,-4.538 0.141,-6.824 0.028,-1.317 0.08,-2.329 0.077,-2.559 -0.01,-0.704 -1.227,-1.059 -1.793,-1.19 -0.593,-0.137 -1.104,-0.188 -1.497,-0.158 -0.519,0.038 -0.883,0.503 -0.883,0.849 v 0.798 c -0.705,-1.106 -1.837,-1.876 -2.59,-2.1 -2.029,-0.602 -4.135,-0.06 -5.744,2.166 -1.049,1.452 -1.898,3.061 -2.335,6.623 -0.126,1.029 -0.183,1.993 -0.175,2.895 -0.418,2.559 -2.266,5.507 -3.777,5.507 -0.884,0 -1.727,-1.715 -1.727,-5.371 0,-4.87 0.302,-11.805 0.353,-12.473 0,0 1.91,-0.033 2.28,-0.037 0.953,-0.011 1.815,0.012 3.084,-0.053 0.637,-0.032 1.25,-2.316 0.593,-2.599 -0.297,-0.128 -2.401,-0.24 -3.235,-0.259 -0.702,-0.016 -2.654,-0.16 -2.654,-0.16 0,0 0.175,-4.603 0.216,-5.089 0.035,-0.405 -0.49,-0.613 -0.791,-0.74 -0.731,-0.31 -1.385,-0.457 -2.16,-0.617 -1.071,-0.221 -1.557,-0.005 -1.652,0.899 -0.143,1.372 -0.217,5.391 -0.217,5.391 -0.786,0 -3.471,-0.153 -4.258,-0.153 -0.73,0 -1.519,3.142 -0.509,3.181 1.162,0.045 3.187,0.084 4.53,0.124 0,0 -0.06,7.049 -0.06,9.225 0,0.231 0.002,0.454 0.002,0.671 -0.739,3.852 -3.341,5.932 -3.341,5.932 0.559,-2.548 -0.583,-4.461 -2.639,-6.081 -0.758,-0.597 -2.253,-1.727 -3.927,-2.965 0,0 0.969,-0.955 1.829,-2.877 0.609,-1.361 0.635,-2.919 -0.859,-3.263 -2.47,-0.568 -4.506,1.246 -5.114,3.183 -0.47,1.5 -0.22,2.613 0.703,3.771 0.067,0.084 0.14,0.17 0.216,0.257 -0.558,1.075 -1.324,2.521 -1.973,3.644 -1.8,3.116 -3.161,5.579 -4.188,5.579 -0.822,0 -0.811,-2.502 -0.811,-4.844 0,-2.019 0.149,-5.055 0.269,-8.197 0.039,-1.04 -0.48,-1.633 -1.352,-2.169 -0.529,-0.325 -1.659,-0.966 -2.313,-0.966 -0.979,0 -3.805,0.133 -6.476,7.856 -0.336,0.973 -0.997,2.747 -0.997,2.747 l 0.057,-9.288 c 0,-0.217 -0.116,-0.428 -0.381,-0.572 -0.45,-0.244 -1.652,-0.743 -2.72,-0.743 -0.509,0 -0.764,0.236 -0.764,0.708 l -0.093,14.531 c 0,1.104 0.029,2.393 0.138,2.955 0.109,0.564 0.285,1.023 0.503,1.297 0.218,0.271 0.47,0.479 0.886,0.565 0.387,0.079 2.505,0.352 2.615,-0.458 0.132,-0.97 0.137,-2.019 1.25,-5.932 1.731,-6.092 3.989,-9.064 5.05,-10.12 0.186,-0.185 0.397,-0.195 0.387,0.107 -0.045,1.335 -0.205,4.672 -0.312,7.508 -0.288,7.587 1.093,8.993 3.065,8.993 1.509,0 3.636,-1.499 5.917,-5.295 1.421,-2.365 2.802,-4.685 3.793,-6.356 0.691,0.641 1.466,1.329 2.242,2.064 1.801,1.709 2.393,3.334 2,4.875 -0.3,1.178 -1.43,2.392 -3.441,1.212 -0.586,-0.345 -0.836,-0.61 -1.426,-0.998 -0.317,-0.209 -0.8,-0.271 -1.09,-0.053 -0.753,0.567 -1.184,1.29 -1.43,2.184 -0.239,0.871 0.632,1.331 1.535,1.733 0.778,0.346 2.45,0.659 3.516,0.694 4.153,0.14 7.481,-2.005 9.797,-7.537 0.415,4.777 2.179,7.48 5.245,7.48 2.05,0 4.105,-2.649 5.004,-5.255 0.258,1.062 0.64,1.986 1.133,2.768 2.362,3.743 6.945,2.938 9.248,-0.241 0.712,-0.982 0.82,-1.336 0.82,-1.336 0.335,3.002 2.752,4.051 4.136,4.051 1.55,0 3.15,-0.732 4.271,-3.258 0.131,0.274 0.275,0.535 0.432,0.784 2.362,3.743 6.945,2.938 9.248,-0.241 0.108,-0.149 0.203,-0.284 0.285,-0.406 l 0.066,1.972 c 0,0 -1.313,1.205 -2.119,1.944 -3.548,3.255 -6.246,5.725 -6.444,8.601 -0.255,3.667 2.72,5.03 4.97,5.209 2.39,0.189 4.436,-1.131 5.693,-2.979 1.106,-1.626 1.83,-5.125 1.777,-8.582 -0.021,-1.384 -0.056,-3.144 -0.083,-5.029 1.247,-1.449 2.651,-3.279 3.946,-5.422 1.408,-2.334 2.92,-5.47 3.693,-7.91 0,0 1.313,0.011 2.715,-0.081 0.447,-0.029 0.576,0.063 0.493,0.392 -0.1,0.396 -1.77,6.838 -0.245,11.129 1.043,2.938 3.395,3.883 4.789,3.883 1.632,0 3.193,-1.233 4.03,-3.063 0.101,0.204 0.206,0.401 0.321,0.584 2.362,3.743 6.929,2.933 9.247,-0.241 0.523,-0.716 0.82,-1.335 0.82,-1.335 0.497,3.105 2.913,4.065 4.296,4.065 1.441,0 2.81,-0.591 3.919,-3.217 0.047,1.156 0.12,2.102 0.235,2.399 0.069,0.183 0.479,0.412 0.777,0.522 1.319,0.488 2.663,0.257 3.16,0.157 0.345,-0.07 0.614,-0.347 0.651,-1.061 0.096,-1.875 0.037,-5.024 0.604,-7.365 0.954,-3.928 1.844,-5.452 2.267,-6.206 0.235,-0.424 0.503,-0.493 0.513,-0.045 0.02,0.904 0.064,3.563 0.434,7.134 0.271,2.627 0.634,4.179 0.913,4.67 0.795,1.405 1.777,1.472 2.577,1.472 0.509,0 1.572,-0.141 1.477,-1.034 -0.046,-0.437 0.035,-3.13 0.976,-7 0.615,-2.527 1.639,-4.811 2.008,-5.646 0.137,-0.308 0.199,-0.065 0.197,-0.018 -0.077,1.74 -0.253,7.433 0.456,10.547 0.962,4.218 3.743,4.689 4.712,4.689 2.068,0 3.76,-1.572 4.329,-5.713 0.138,-0.997 -0.065,-1.766 -0.674,-1.766"
         id="path846" />
    </g>
  </g>
</svg>
